<svg xmlns="http://www.w3.org/2000/svg" viewBox="0 0 2048 2048" width="1em" height="1em" class="ProfileHeader-module__gamerScoreIcon___pVHeF Icon-module__icon___8FXl6" aria-hidden="true"><path d="M1024 0q141 0 272 36t245 103 207 160 160 208 103 245 37 272q0 141-36 272t-104 244-160 207-207 161-245 103-272 37q-141 0-272-36t-244-104-207-160-161-207-103-245-37-272q0-141 36-272t103-245 160-207 208-160T751 37t273-37zm367 956H984v173h192v187q-29 13-60 17t-63 4q-72 0-124-23t-87-64-52-97-17-125q0-69 20-127t60-101 95-67 127-24q71 0 140 14t132 50V572q-65-24-132-33t-137-9q-115 0-212 35T697 666 586 826t-40 213q0 115 35 204t101 150 156 93 205 32q91 0 180-17t168-64V956z" fill="white"></path></svg>